<?xml version="1.0" standalone="no"?>
<!DOCTYPE svg PUBLIC "-//W3C//DTD SVG 20010904//EN"
 "http://www.w3.org/TR/2001/REC-SVG-20010904/DTD/svg10.dtd">
<svg version="1.0" xmlns="http://www.w3.org/2000/svg"
 width="980.000000pt" height="914.000000pt" viewBox="0 0 980.000000 914.000000"
 preserveAspectRatio="xMidYMid meet">
<metadata>
Created by potrace 1.15, written by Peter Selinger 2001-2017
</metadata>
<g transform="translate(0.000000,914.000000) scale(0.100000,-0.100000)"
fill="#000000" stroke="none">
<path d="M3946 6436 c-83 -43 -225 -129 -290 -177 -4 -4 12 -40 36 -80 25 -41
152 -260 282 -487 l238 -413 -49 -52 c-95 -101 -187 -265 -223 -395 l-11 -42
-555 2 -555 3 -5 -22 c-9 -34 0 -450 9 -459 4 -5 12 -3 16 4 6 9 129 12 550
10 l542 -3 25 -73 c44 -132 115 -252 207 -349 l49 -52 -271 -468 c-230 -397
-274 -468 -291 -466 -12 2 -18 -1 -15 -7 11 -18 199 -137 295 -188 119 -63
136 -68 142 -45 12 42 538 938 550 936 7 -1 54 -9 103 -19 104 -19 291 -15
388 9 l58 15 47 -82 c185 -314 497 -862 495 -868 -6 -19 33 -5 130 45 111 58
258 149 278 173 10 12 9 17 -3 27 -9 7 -136 221 -283 475 l-267 464 44 46 c96
101 162 210 209 346 l28 81 560 0 559 0 6 35 c8 48 6 409 -3 440 -6 21 -8 22
-14 8 -6 -17 -42 -18 -556 -18 l-550 0 -16 58 c-38 130 -123 278 -218 379
l-49 52 282 486 c220 382 278 490 269 501 -18 22 -168 115 -278 172 l-104 54
-13 -24 c-125 -228 -556 -953 -566 -951 -7 1 -49 9 -93 17 -102 20 -248 20
-350 0 -44 -8 -86 -16 -93 -17 -16 -2 -554 922 -547 940 2 6 -2 17 -10 23 -10
8 -38 -2 -119 -44z m1069 -1361 c100 -26 165 -64 241 -139 110 -110 157 -221
157 -371 0 -150 -47 -261 -157 -371 -75 -75 -141 -112 -242 -139 -257 -67
-545 95 -624 353 -27 87 -27 227 0 314 41 133 146 253 276 315 113 54 235 67
349 38z"/>
<path d="M4790 4771 c-74 -40 -117 -101 -127 -179 -11 -94 41 -188 128 -233
53 -26 147 -26 201 2 162 83 172 304 18 397 -47 28 -63 32 -120 32 -43 -1 -77
-7 -100 -19z"/>
</g>
</svg>
