<svg version="1.0" xmlns="http://www.w3.org/2000/svg"
 >
<symbol id="main" viewBox="0 0 980.000000 914.000000">
  <g transform="translate(0.000000,914.000000) scale(0.100000,-0.100000)"
     fill="#ffffff" stroke="none">
    <path d="M9470 9111 c-20 -11 -48 -32 -64 -47 -57 -57 -61 -74 -64 -266 l-4
-178 -2641 0 c-2789 0 -2735 0 -3042 -45 -495 -73 -1032 -261 -1475 -515
-1132 -651 -1911 -1765 -2120 -3034 -45 -273 -55 -404 -55 -711 0 -307 10
-438 55 -711 260 -1574 1404 -2900 2924 -3390 444 -143 846 -205 1330 -205
328 0 592 25 871 82 1095 225 2077 879 2703 1802 456 673 701 1407 742 2224
14 273 13 1507 -1 1572 -32 150 -193 224 -330 153 -42 -21 -61 -40 -86 -82
l-33 -54 0 -696 c0 -891 -13 -1130 -81 -1459 -60 -292 -202 -718 -282 -845
-10 -17 -54 -96 -96 -176 -195 -366 -386 -625 -681 -921 -310 -311 -595 -520
-977 -716 -392 -202 -813 -333 -1283 -400 -158 -22 -748 -26 -900 -5 -314 42
-563 99 -820 187 -1308 450 -2284 1582 -2535 2939 -45 246 -59 411 -59 701 0
290 14 455 59 701 310 1676 1707 2961 3403 3128 205 21 203 21 2950 18 l2462
-2 0 -660 0 -660 -2662 -3 c-2656 -3 -2663 -3 -2773 -24 -296 -57 -494 -122
-730 -241 -237 -119 -421 -250 -618 -442 -427 -413 -681 -923 -759 -1520 -6
-52 -12 -185 -12 -295 0 -110 6 -243 12 -295 77 -590 338 -1115 758 -1520 981
-946 2521 -949 3503 -5 424 408 681 922 763 1525 10 71 13 297 13 890 l0 795
-22 42 c-57 105 -192 153 -298 104 -51 -23 -111 -89 -126 -139 -8 -29 -10
-211 -6 -708 8 -890 8 -845 -8 -962 -129 -926 -852 -1647 -1781 -1777 -140
-20 -418 -20 -558 0 -931 130 -1651 850 -1781 1781 -20 140 -20 418 0 558 130
931 850 1651 1782 1781 121 18 422 20 523 5 36 -5 202 -10 369 -10 275 0 303
-1 297 -16 -5 -13 -2 -15 16 -9 65 20 381 23 2161 24 l1937 1 0 -163 c0 -158
1 -165 28 -218 85 -168 319 -168 405 0 l27 55 0 1440 c0 908 -4 1454 -10 1475
-28 98 -115 161 -221 161 -42 -1 -76 -7 -99 -19z"/>
    <path d="M1044 3851 c-74 -34 -134 -126 -134 -208 0 -71 106 -439 178 -619 49
-122 125 -279 191 -399 470 -839 1248 -1436 2184 -1676 146 -38 216 -40 272
-11 140 72 176 237 77 352 -44 53 -85 72 -207 100 -407 92 -841 307 -1190 586
-60 49 -166 145 -235 214 -380 381 -656 865 -785 1380 -14 58 -31 122 -36 143
-13 48 -72 115 -124 138 -52 24 -138 24 -191 0z"/>
  </g>
</symbol>
  <symbol id="inner" viewBox="0 0 980.000000 914.000000">
    <g transform="translate(-58.000000,940.000000) scale(0.100000,-0.100000)"
       fill="#ffffff" stroke="none" id="inner">
      <path d="M3946 6436 c-83 -43 -225 -129 -290 -177 -4 -4 12 -40 36 -80 25 -41
152 -260 282 -487 l238 -413 -49 -52 c-95 -101 -187 -265 -223 -395 l-11 -42
 -555 2 -555 3 -5 -22 c-9 -34 0 -450 9 -459 4 -5 12 -3 16 4 6 9 129 12 550
10 l542 -3 25 -73 c44 -132 115 -252 207 -349 l49 -52 -271 -468 c-230 -397
 -274 -468 -291 -466 -12 2 -18 -1 -15 -7 11 -18 199 -137 295 -188 119 -63
136 -68 142 -45 12 42 538 938 550 936 7 -1 54 -9 103 -19 104 -19 291 -15
388 9 l58 15 47 -82 c185 -314 497 -862 495 -868 -6 -19 33 -5 130 45 111 58
258 149 278 173 10 12 9 17 -3 27 -9 7 -136 221 -283 475 l-267 464 44 46 c96
101 162 210 209 346 l28 81 560 0 559 0 6 35 c8 48 6 409 -3 440 -6 21 -8 22
 -14 8 -6 -17 -42 -18 -556 -18 l-550 0 -16 58 c-38 130 -123 278 -218 379
l-49 52 282 486 c220 382 278 490 269 501 -18 22 -168 115 -278 172 l-104 54
 -13 -24 c-125 -228 -556 -953 -566 -951 -7 1 -49 9 -93 17 -102 20 -248 20
 -350 0 -44 -8 -86 -16 -93 -17 -16 -2 -554 922 -547 940 2 6 -2 17 -10 23 -10
8 -38 -2 -119 -44z m1069 -1361 c100 -26 165 -64 241 -139 110 -110 157 -221
157 -371 0 -150 -47 -261 -157 -371 -75 -75 -141 -112 -242 -139 -257 -67
 -545 95 -624 353 -27 87 -27 227 0 314 41 133 146 253 276 315 113 54 235 67
349 38z"/>
      <path d="M4790 4771 c-74 -40 -117 -101 -127 -179 -11 -94 41 -188 128 -233
53 -26 147 -26 201 2 162 83 172 304 18 397 -47 28 -63 32 -120 32 -43 -1 -77
 -7 -100 -19z"/>
    </g>
  </symbol>

</svg>
